<?xml version="1.0" encoding="UTF-8" ?>
<!DOCTYPE svg PUBLIC "-//W3C//DTD SVG 1.1//EN" "http://www.w3.org/Graphics/SVG/1.1/DTD/svg11.dtd">
<svg width="1065pt" height="244pt" viewBox="0 0 1065 244" version="1.1" xmlns="http://www.w3.org/2000/svg">
<path fill="#fefefe" d=" M 0.00 0.00 L 1065.00 0.00 L 1065.00 244.00 L 0.00 244.00 L 0.00 154.64 C 0.90 174.00 3.57 194.13 14.09 210.86 C 22.29 224.29 35.91 233.84 50.85 238.37 C 67.65 243.89 85.53 243.73 103.00 243.64 C 115.67 243.47 128.45 244.31 141.00 242.08 C 159.00 239.02 177.01 232.16 190.26 219.21 C 202.09 207.76 208.49 191.39 208.89 175.05 C 209.34 161.38 208.97 147.70 209.09 134.02 C 208.99 126.79 209.36 119.54 208.86 112.32 C 172.34 112.48 135.82 112.43 99.30 112.34 C 99.14 126.82 99.26 141.31 99.24 155.79 C 115.83 157.87 132.44 159.74 149.01 161.90 C 149.06 167.33 149.12 173.24 145.79 177.85 C 141.50 184.26 133.42 186.61 126.08 186.83 C 117.05 187.03 108.02 186.85 99.00 186.91 C 90.34 187.05 80.99 185.63 74.30 179.68 C 67.85 174.11 65.47 165.30 65.48 157.04 C 65.44 136.34 65.47 115.64 65.46 94.95 C 65.41 85.59 67.36 75.78 73.28 68.28 C 78.91 61.07 87.96 56.95 97.05 56.77 C 111.54 56.36 126.04 57.20 140.46 58.54 C 143.14 68.43 145.09 78.51 147.68 88.41 C 148.77 88.64 149.88 88.75 151.00 88.73 C 168.04 88.70 185.09 88.61 202.14 88.78 C 202.78 73.85 202.22 58.89 202.41 43.95 C 202.30 33.26 202.61 22.56 202.25 11.88 C 167.50 5.74 132.38 -0.00 96.97 0.86 C 77.25 0.49 56.81 3.41 39.68 13.75 C 22.57 23.81 10.48 41.09 5.09 60.02 C 1.71 70.81 0.61 82.11 0.00 93.35 L 0.00 0.00 Z" />
<path fill="#87c9bd" d=" M 39.68 13.75 C 56.81 3.41 77.25 0.49 96.97 0.86 C 132.38 -0.00 167.50 5.74 202.25 11.88 C 202.61 22.56 202.30 33.26 202.41 43.95 C 202.22 58.89 202.78 73.85 202.14 88.78 C 185.09 88.61 168.04 88.70 151.00 88.73 C 149.88 88.75 148.77 88.64 147.68 88.41 C 145.09 78.51 143.14 68.43 140.46 58.54 C 126.04 57.20 111.54 56.36 97.05 56.77 C 87.96 56.95 78.91 61.07 73.28 68.28 C 67.36 75.78 65.41 85.59 65.46 94.95 C 65.47 115.64 65.44 136.34 65.48 157.04 C 65.47 165.30 67.85 174.11 74.30 179.68 C 80.99 185.63 90.34 187.05 99.00 186.91 C 108.02 186.85 117.05 187.03 126.08 186.83 C 133.42 186.61 141.50 184.26 145.79 177.85 C 149.12 173.24 149.06 167.33 149.01 161.90 C 132.44 159.74 115.83 157.87 99.24 155.79 C 99.26 141.31 99.14 126.82 99.30 112.34 C 135.82 112.43 172.34 112.48 208.86 112.32 C 209.36 119.54 208.99 126.79 209.09 134.02 C 208.97 147.70 209.34 161.38 208.89 175.05 C 208.49 191.39 202.09 207.76 190.26 219.21 C 177.01 232.16 159.00 239.02 141.00 242.08 C 128.45 244.31 115.67 243.47 103.00 243.64 C 85.53 243.73 67.65 243.89 50.85 238.37 C 35.91 233.84 22.29 224.29 14.09 210.86 C 3.57 194.13 0.90 174.00 0.00 154.64 L 0.00 93.35 C 0.61 82.11 1.71 70.81 5.09 60.02 C 10.48 41.09 22.57 23.81 39.68 13.75 Z" />
<path fill="#87c9bd" d=" M 649.32 5.25 C 714.54 5.15 779.75 5.25 844.97 5.21 C 845.15 30.89 845.03 56.58 845.03 82.27 C 831.43 82.31 817.80 82.56 804.21 82.14 C 801.74 73.85 799.60 65.45 796.81 57.26 C 777.48 57.29 758.16 57.38 738.84 57.21 C 738.19 69.87 738.62 82.60 738.62 95.29 C 755.29 95.49 771.96 95.34 788.64 95.37 C 788.43 113.40 789.00 131.48 788.35 149.49 C 772.00 149.44 755.65 149.43 739.31 149.49 L 738.67 149.92 C 738.46 162.25 738.42 174.61 738.70 186.95 C 758.43 186.86 778.17 186.93 797.91 186.91 C 800.37 178.64 802.95 170.40 805.17 162.06 C 818.76 161.61 832.39 161.91 846.00 161.91 C 846.14 187.60 846.03 213.29 846.04 238.98 C 780.94 239.02 715.84 239.00 650.73 238.99 C 650.74 223.39 650.50 207.78 650.86 192.19 C 658.19 191.09 665.48 189.69 672.83 188.70 C 673.37 171.14 672.90 153.55 673.06 135.97 C 673.06 112.64 673.07 89.31 673.06 65.98 C 673.04 62.46 673.24 58.93 672.76 55.43 C 664.89 54.63 657.02 53.54 649.30 51.81 C 649.39 36.29 649.36 20.77 649.32 5.25 Z" />
<path fill="#87c9bd" d=" M 294.44 56.66 C 308.58 55.39 322.79 55.52 336.97 55.85 C 354.44 56.70 372.86 59.11 387.56 69.37 C 400.38 78.20 407.65 93.06 410.59 108.01 C 414.64 127.04 414.26 146.66 413.75 166.01 C 412.68 185.00 409.96 205.35 397.67 220.65 C 386.43 234.73 368.16 240.46 350.89 242.41 C 346.87 242.52 342.90 244.54 338.95 243.00 C 327.96 242.87 316.96 243.14 305.97 242.86 C 296.09 243.66 286.20 241.65 276.60 239.51 C 260.79 235.91 245.80 226.51 238.03 211.94 C 227.57 192.42 227.06 169.57 227.01 147.94 C 227.27 126.94 228.13 104.71 238.80 86.01 C 246.17 72.83 259.74 64.29 274.04 60.40 C 280.71 58.52 287.58 57.54 294.44 56.66 Z" />
<path fill="#87c9bd" d=" M 426.79 59.72 C 458.54 59.54 490.28 59.74 522.03 59.63 C 523.32 59.66 524.61 59.74 525.92 59.87 C 525.76 74.49 525.98 89.11 525.80 103.73 C 521.02 104.36 516.27 105.15 511.48 105.72 C 514.31 117.67 518.45 129.29 521.74 141.12 C 526.39 156.42 530.89 171.77 535.48 187.09 C 535.95 186.41 536.38 185.70 536.77 184.97 C 546.82 159.03 556.85 133.08 566.95 107.16 C 561.28 105.86 555.51 105.08 549.82 103.85 C 549.38 89.16 549.60 74.44 549.72 59.74 C 579.49 59.61 609.27 59.56 639.04 59.77 C 639.04 74.47 639.27 89.17 638.92 103.86 C 631.08 105.61 623.17 106.90 615.25 108.20 C 598.26 151.80 580.72 195.19 563.79 238.82 C 541.57 239.19 519.32 238.97 497.10 238.93 C 480.92 196.13 464.66 153.37 448.50 110.56 C 447.89 109.38 447.71 107.41 446.00 107.47 C 439.56 106.55 433.23 105.04 426.85 103.84 C 426.54 89.14 426.64 74.42 426.79 59.72 Z" />
<path fill="#87c9bd" d=" M 860.03 59.74 C 893.98 59.61 927.94 59.56 961.89 59.77 C 961.83 74.43 961.93 89.09 961.83 103.74 C 958.25 104.41 954.60 104.66 951.09 105.62 C 957.20 114.45 963.41 123.21 969.72 131.89 C 975.96 123.52 981.58 114.71 987.88 106.39 C 983.62 105.17 979.21 104.58 974.85 103.87 C 974.28 89.19 974.66 74.46 974.67 59.76 C 1004.44 59.60 1034.22 59.56 1064.00 59.77 C 1063.95 74.45 1063.98 89.13 1063.99 103.81 C 1058.86 104.99 1053.64 105.73 1048.44 106.56 C 1047.22 106.87 1045.73 106.88 1044.94 107.99 C 1033.55 121.93 1022.19 135.89 1010.78 149.81 C 1009.51 150.95 1011.24 152.17 1011.80 153.16 C 1021.38 165.26 1031.00 177.34 1040.54 189.49 C 1041.87 191.66 1044.73 191.23 1046.90 191.69 C 1052.63 192.17 1058.19 193.67 1063.85 194.60 C 1064.18 209.37 1063.86 224.15 1064.00 238.92 C 1030.31 239.10 996.62 238.96 962.94 238.99 C 962.85 224.31 962.86 209.63 962.93 194.95 C 966.30 194.36 969.71 193.98 973.12 193.62 C 971.68 190.36 969.15 187.78 967.18 184.86 C 962.76 179.00 958.66 172.88 954.01 167.20 C 947.83 175.57 942.26 184.36 936.14 192.78 C 940.77 193.66 945.45 194.14 950.10 194.89 C 950.28 209.58 950.16 224.28 950.16 238.97 C 920.11 239.03 890.06 239.00 860.01 238.99 C 860.01 224.31 859.97 209.63 860.04 194.95 C 865.79 193.57 871.72 192.87 877.43 191.34 C 890.20 177.73 902.89 163.99 915.34 150.07 C 904.33 135.90 893.37 121.70 882.23 107.65 C 874.80 106.65 867.45 105.20 860.09 103.80 C 859.91 89.11 860.03 74.43 860.03 59.74 Z" />
<path fill="#fefefe" d=" M 307.10 101.33 C 313.68 100.37 320.35 100.77 326.97 100.76 C 333.63 100.84 341.07 101.93 345.80 107.10 C 350.47 112.18 351.20 119.44 351.26 126.02 C 351.27 142.36 351.30 158.69 351.25 175.02 C 351.19 181.83 349.88 189.63 344.05 193.98 C 337.17 199.11 328.12 198.61 319.99 198.61 C 312.21 198.57 303.53 199.08 297.00 194.09 C 291.13 189.72 289.93 181.89 289.83 175.05 C 289.77 159.05 289.82 143.04 289.81 127.04 C 289.93 120.63 290.26 113.65 294.24 108.30 C 297.22 104.18 302.19 102.06 307.10 101.33 Z" />
</svg>
